<svg width="41" height="40" viewBox="0 0 41 40" fill="none" xmlns="http://www.w3.org/2000/svg">
<path d="M28.8333 28.3333C26.9924 28.3333 25.5 29.8257 25.5 31.6667C25.5 33.5076 26.9924 35 28.8333 35C30.6743 35 32.1667 33.5076 32.1667 31.6667C32.1667 29.8257 30.6743 28.3333 28.8333 28.3333ZM28.8333 28.3333H15.9899C15.2215 28.3333 14.8366 28.3333 14.5202 28.1966C14.2411 28.076 13.999 27.8819 13.8226 27.6342C13.6248 27.3567 13.5453 26.9855 13.3879 26.2509L9.28581 7.10775C9.12473 6.35606 9.04311 5.98063 8.8431 5.69987C8.66669 5.45225 8.42461 5.25735 8.14553 5.13675C7.82909 5 7.44631 5 6.67756 5H5.5M10.5 10H31.9554C33.1583 10 33.7592 10 34.163 10.2506C34.5166 10.4701 34.7755 10.8144 34.8884 11.215C35.0173 11.6724 34.8517 12.2499 34.5183 13.4058L32.2106 21.4058C32.0113 22.0968 31.9116 22.4417 31.7093 22.6981C31.5308 22.9245 31.2953 23.1017 31.0284 23.2104C30.7269 23.3333 30.3685 23.3333 29.6535 23.3333H13.3841M13.8333 35C11.9924 35 10.5 33.5076 10.5 31.6667C10.5 29.8257 11.9924 28.3333 13.8333 28.3333C15.6743 28.3333 17.1667 29.8257 17.1667 31.6667C17.1667 33.5076 15.6743 35 13.8333 35Z" stroke="#777777" stroke-width="2" stroke-linecap="round" stroke-linejoin="round"/>
</svg>
